<svg xmlns="http://www.w3.org/2000/svg" viewBox="0 0 349.51 225.2"><defs><style>.cls-1{fill:#b52a3f;}.cls-2{fill:#fff;}</style></defs><title>Asset 1</title><g id="Layer_2" data-name="Layer 2"><g id="Layer_1-2" data-name="Layer 1"><path class="cls-1" d="M0,215.69V0H65.79L83.87,131.58,102,0h66.29V215.69H128.81V60.26L104,215.69H65.29L38.92,60.26V215.69Z"/><path class="cls-2" d="M133.45,225.2,145.9,96.35h43.65l12.3,128.85H177.4l-1.8-20.85H160l-1.5,20.85ZM162,183.8h11.7L168,118.25h-1.2Z"/><path class="cls-2" d="M209.65,96.35h35.54q13.8,0,20.7,7.65t7.05,22.65l.3,60.3q.15,19.05-6.6,28.65t-22.35,9.6H209.65ZM240.1,202.4q7,0,7-6.9V129.05a23.54,23.54,0,0,0-.67-6.52A4.35,4.35,0,0,0,244,119.6a15.29,15.29,0,0,0-5.55-.75H235.6V202.4Z"/><path class="cls-2" d="M280.14,225.2,292.59,96.35h43.65l12.3,128.85H324.09l-1.8-20.85h-15.6l-1.5,20.85Zm28.5-41.4h11.7l-5.7-65.55h-1.2Z"/><path class="cls-2" d="M134.07,73.84V9h13.36l6,31V9h12.53V73.84H153.25l-6.5-32.46V73.84Z"/><path class="cls-2" d="M175.21,69.65q-4.08-4.79-4.08-13.47V25.3q0-8.37,4.08-12.64t11.93-4.27q7.85,0,11.93,4.27t4.07,12.64V56.18q0,8.76-4.07,13.51t-11.93,4.76Q179.28,74.45,175.21,69.65ZM189.48,61a11.87,11.87,0,0,0,.6-4.23V25.08a9,9,0,0,0-.56-3.44,2.26,2.26,0,0,0-2.31-1.32q-3.24,0-3.24,4.91V56.86a10.16,10.16,0,0,0,.68,4.23,2.51,2.51,0,0,0,2.49,1.43A2.29,2.29,0,0,0,189.48,61Z"/><path class="cls-2" d="M213.41,73.84,206.46,9h12.69l3.62,40.91L226.39,9h12.08l3.47,40.91L245.41,9h12.84l-7.1,64.84H235.6l-3.24-31.25-3.1,31.25Z"/><path class="cls-2" d="M291.08,18.26a10.35,10.35,0,0,1-4.05,2.9,12.73,12.73,0,0,1-5,1.11V10.58a19.45,19.45,0,0,0,7.46-3,13.54,13.54,0,0,0,5.33-6.23h11.78V74.73H291.08Z"/><path class="cls-2" d="M315.69,69.78q-4.56-5.72-4.56-16.89V48a24.83,24.83,0,0,1,1.4-9.21,9.69,9.69,0,0,1,4.91-5.12,8.69,8.69,0,0,1-4.78-4.52,19.65,19.65,0,0,1-1.45-8.11v-2Q311.21,9.56,316,5T330.32.52q9.65,0,14.37,4.6t4.74,14.59a25.11,25.11,0,0,1-1.37,9.08,8.79,8.79,0,0,1-4.86,5,9.24,9.24,0,0,1,5.12,5.85A41.92,41.92,0,0,1,349.51,51a13.71,13.71,0,0,1-.08,1.87q0,11.17-4.52,16.89T330.32,75.5Q320.26,75.5,315.69,69.78Zm18.64-16-.09-3.67a26.73,26.73,0,0,0-.68-6.74,3.08,3.08,0,0,0-3.24-2.56A3.18,3.18,0,0,0,327.25,43a14.54,14.54,0,0,0-.94,5.59,17.9,17.9,0,0,0,.09,2.13v.68l-.09,2.31q0,7.24,4,7.25T334.33,53.75Zm-.17-33.27a10.61,10.61,0,0,0-.9-4.61,3.24,3.24,0,0,0-5.88,0,10.61,10.61,0,0,0-.9,4.61q0,7,3.84,7T334.16,20.48Z"/></g></g></svg>